HIERARCHY
ROOT Hips
{
  OFFSET 0.000000 95.000000 0.000000
  CHANNELS 6 Xposition Yposition Zposition Zrotation Xrotation Yrotation
  JOINT Spine
  {
    OFFSET 0.000000 10.000000 0.000000
    CHANNELS 3 Zrotation Xrotation Yrotation
    JOINT Spine1
    {
      OFFSET 0.000000 12.000000 0.000000
      CHANNELS 3 Zrotation Xrotation Yrotation
      JOINT Spine2
      {
        OFFSET 0.000000 12.000000 0.000000
        CHANNELS 3 Zrotation Xrotation Yrotation
        JOINT Neck
        {
          OFFSET 0.000000 10.000000 0.000000
          CHANNELS 3 Zrotation Xrotation Yrotation
          JOINT Head
          {
            OFFSET 0.000000 8.000000 0.000000
            CHANNELS 3 Zrotation Xrotation Yrotation
            End Site
            {
              OFFSET 0.000000 10.000000 0.000000
            }
          }
        }
        JOINT LeftShoulder
        {
          OFFSET 6.000000 8.000000 0.000000
          CHANNELS 3 Zrotation Xrotation Yrotation
          JOINT LeftArm
          {
            OFFSET 12.000000 0.000000 0.000000
            CHANNELS 3 Zrotation Xrotation Yrotation
            JOINT LeftForeArm
            {
              OFFSET 24.000000 0.000000 0.000000
              CHANNELS 3 Zrotation Xrotation Yrotation
              JOINT LeftHand
              {
                OFFSET 22.000000 0.000000 0.000000
                CHANNELS 3 Zrotation Xrotation Yrotation
                JOINT LeftHandThumb1
                {
                  OFFSET 1.800000 -1.400000 0.500000
                  CHANNELS 3 Zrotation Xrotation Yrotation
                  JOINT LeftHandThumb2
                  {
                    OFFSET 2.400000 0.000000 0.000000
                    CHANNELS 3 Zrotation Xrotation Yrotation
                    JOINT LeftHandThumb3
                    {
                      OFFSET 1.900000 0.000000 0.000000
                      CHANNELS 3 Zrotation Xrotation Yrotation
                      End Site
                      {
                        OFFSET 1.600000 0.000000 0.000000
                      }
                    }
                  }
                }
                JOINT LeftHandIndex1
                {
                  OFFSET 6.600000 1.200000 0.300000
                  CHANNELS 3 Zrotation Xrotation Yrotation
                  JOINT LeftHandIndex2
                  {
                    OFFSET 2.000000 0.000000 0.000000
                    CHANNELS 3 Zrotation Xrotation Yrotation
                    JOINT LeftHandIndex3
                    {
                      OFFSET 1.200000 0.000000 0.000000
                      CHANNELS 3 Zrotation Xrotation Yrotation
                      End Site
                      {
                        OFFSET 1.000000 0.000000 0.000000
                      }
                    }
                  }
                }
                JOINT LeftHandMiddle1
                {
                  OFFSET 7.200000 0.000000 0.300000
                  CHANNELS 3 Zrotation Xrotation Yrotation
                  JOINT LeftHandMiddle2
                  {
                    OFFSET 3.000000 0.000000 0.000000
                    CHANNELS 3 Zrotation Xrotation Yrotation
                    JOINT LeftHandMiddle3
                    {
                      OFFSET 2.000000 0.000000 0.000000
                      CHANNELS 3 Zrotation Xrotation Yrotation
                      End Site
                      {
                        OFFSET 1.600000 0.000000 0.000000
                      }
                    }
                  }
                }
                JOINT LeftHandRing1
                {
                  OFFSET 7.100000 -1.000000 0.400000
                  CHANNELS 3 Zrotation Xrotation Yrotation
                  JOINT LeftHandRing2
                  {
                    OFFSET 2.600000 0.000000 0.000000
                    CHANNELS 3 Zrotation Xrotation Yrotation
                    JOINT LeftHandRing3
                    {
                      OFFSET 1.600000 0.000000 0.000000
                      CHANNELS 3 Zrotation Xrotation Yrotation
                      End Site
                      {
                        OFFSET 1.300000 0.000000 0.000000
                      }
                    }
                  }
                }
                JOINT LeftHandPinky1
                {
                  OFFSET 6.500000 -2.000000 0.500000
                  CHANNELS 3 Zrotation Xrotation Yrotation
                  JOINT LeftHandPinky2
                  {
                    OFFSET 1.900000 0.000000 0.000000
                    CHANNELS 3 Zrotation Xrotation Yrotation
                    JOINT LeftHandPinky3
                    {
                      OFFSET 1.400000 0.000000 0.000000
                      CHANNELS 3 Zrotation Xrotation Yrotation
                      End Site
                      {
                        OFFSET 1.300000 0.000000 0.000000
                      }
                    }
                  }
                }
              }
            }
          }
        }
        JOINT RightShoulder
        {
          OFFSET -6.000000 8.000000 0.000000
          CHANNELS 3 Zrotation Xrotation Yrotation
          JOINT RightArm
          {
            OFFSET -12.000000 0.000000 0.000000
            CHANNELS 3 Zrotation Xrotation Yrotation
            JOINT RightForeArm
            {
              OFFSET -24.000000 0.000000 0.000000
              CHANNELS 3 Zrotation Xrotation Yrotation
              JOINT RightHand
              {
                OFFSET -22.000000 0.000000 0.000000
                CHANNELS 3 Zrotation Xrotation Yrotation
                JOINT RightHandThumb1
                {
                  OFFSET -1.800000 -1.400000 0.500000
                  CHANNELS 3 Zrotation Xrotation Yrotation
                  JOINT RightHandThumb2
                  {
                    OFFSET -2.400000 0.000000 0.000000
                    CHANNELS 3 Zrotation Xrotation Yrotation
                    JOINT RightHandThumb3
                    {
                      OFFSET -1.900000 0.000000 0.000000
                      CHANNELS 3 Zrotation Xrotation Yrotation
                      End Site
                      {
                        OFFSET -1.600000 0.000000 0.000000
                      }
                    }
                  }
                }
                JOINT RightHandIndex1
                {
                  OFFSET -6.600000 1.200000 0.300000
                  CHANNELS 3 Zrotation Xrotation Yrotation
                  JOINT RightHandIndex2
                  {
                    OFFSET -2.000000 0.000000 0.000000
                    CHANNELS 3 Zrotation Xrotation Yrotation
                    JOINT RightHandIndex3
                    {
                      OFFSET -1.200000 0.000000 0.000000
                      CHANNELS 3 Zrotation Xrotation Yrotation
                      End Site
                      {
                        OFFSET -1.000000 0.000000 0.000000
                      }
                    }
                  }
                }
                JOINT RightHandMiddle1
                {
                  OFFSET -7.200000 0.000000 0.300000
                  CHANNELS 3 Zrotation Xrotation Yrotation
                  JOINT RightHandMiddle2
                  {
                    OFFSET -3.000000 0.000000 0.000000
                    CHANNELS 3 Zrotation Xrotation Yrotation
                    JOINT RightHandMiddle3
                    {
                      OFFSET -2.000000 0.000000 0.000000
                      CHANNELS 3 Zrotation Xrotation Yrotation
                      End Site
                      {
                        OFFSET -1.600000 0.000000 0.000000
                      }
                    }
                  }
                }
                JOINT RightHandRing1
                {
                  OFFSET -7.100000 -1.000000 0.400000
                  CHANNELS 3 Zrotation Xrotation Yrotation
                  JOINT RightHandRing2
                  {
                    OFFSET -2.600000 0.000000 0.000000
                    CHANNELS 3 Zrotation Xrotation Yrotation
                    JOINT RightHandRing3
                    {
                      OFFSET -1.600000 0.000000 0.000000
                      CHANNELS 3 Zrotation Xrotation Yrotation
                      End Site
                      {
                        OFFSET -1.300000 0.000000 0.000000
                      }
                    }
                  }
                }
                JOINT RightHandPinky1
                {
                  OFFSET -6.500000 -2.000000 0.500000
                  CHANNELS 3 Zrotation Xrotation Yrotation
                  JOINT RightHandPinky2
                  {
                    OFFSET -1.900000 0.000000 0.000000
                    CHANNELS 3 Zrotation Xrotation Yrotation
                    JOINT RightHandPinky3
                    {
                      OFFSET -1.400000 0.000000 0.000000
                      CHANNELS 3 Zrotation Xrotation Yrotation
                      End Site
                      {
                        OFFSET -1.300000 0.000000 0.000000
                      }
                    }
                  }
                }
              }
            }
          }
        }
      }
    }
  }
  JOINT LeftUpLeg
  {
    OFFSET 10.000000 -5.000000 0.000000
    CHANNELS 3 Zrotation Xrotation Yrotation
    JOINT LeftLeg
    {
      OFFSET 0.000000 -42.000000 0.000000
      CHANNELS 3 Zrotation Xrotation Yrotation
      JOINT LeftFoot
      {
        OFFSET 0.000000 -42.000000 4.000000
        CHANNELS 3 Zrotation Xrotation Yrotation
        End Site
        {
          OFFSET 0.000000 0.000000 12.000000
        }
      }
    }
  }
  JOINT RightUpLeg
  {
    OFFSET -10.000000 -5.000000 0.000000
    CHANNELS 3 Zrotation Xrotation Yrotation
    JOINT RightLeg
    {
      OFFSET 0.000000 -42.000000 0.000000
      CHANNELS 3 Zrotation Xrotation Yrotation
      JOINT RightFoot
      {
        OFFSET 0.000000 -42.000000 4.000000
        CHANNELS 3 Zrotation Xrotation Yrotation
        End Site
        {
          OFFSET 0.000000 0.000000 12.000000
        }
      }
    }
  }
}
MOTION
Frames: 4
Frame Time: 0.033333
0.0000 95.0000 0.0000 0.0000 0.0000 0.0000 0.0000 0.0000 0.0000 0.0000 0.0000 0.0000 0.0000 0.0000 0.0000 0.0000 0.0000 0.0000 0.0000 0.0000 0.0000 0.0000 0.0000 0.0000 -77.2592 3.8116 4.7687 -10.1286 -5.3855 9.0119 -159.8268 7.2847 175.3093 58.6318 -11.8513 4.1924 15.7108 0.0000 0.0000 11.6227 0.0000 0.0000 -3.2811 -0.8325 6.4164 9.9045 0.0000 0.0000 2.5350 0.0000 0.0000 8.7329 -0.6033 3.1163 17.4501 0.0000 0.0000 3.5119 0.0000 0.0000 18.1734 -1.0602 2.6294 19.8574 0.0000 0.0000 1.1281 0.0000 0.0000 25.1782 -1.6439 2.5402 14.8847 0.0000 0.0000 4.8612 0.0000 0.0000 0.0000 0.0000 0.0000 89.2871 -2.3842 2.4140 -4.6659 11.4579 10.4593 -141.2759 33.5505 -32.2596 -74.2271 -15.2133 -13.9524 6.3751 0.0000 0.0000 7.7605 0.0000 0.0000 9.8195 -1.1620 -16.7675 10.9495 0.0000 0.0000 11.0413 0.0000 0.0000 21.2055 2.0985 -6.4039 89.3295 0.0000 0.0000 20.0754 0.0000 0.0000 26.2100 -1.6601 8.3236 93.7793 0.0000 0.0000 13.8616 0.0000 0.0000 26.6153 -5.6180 13.4422 87.3748 0.0000 0.0000 13.9915 0.0000 0.0000 0.0000 0.0000 0.0000 0.0000 0.0000 0.0000 0.0000 0.0000 0.0000 0.0000 0.0000 0.0000 0.0000 0.0000 0.0000 0.0000 0.0000 0.0000
0.0000 95.0000 0.0000 0.0000 0.0000 0.0000 0.0000 0.0000 0.0000 0.0000 0.0000 0.0000 0.0000 0.0000 0.0000 0.0000 0.0000 0.0000 0.0000 0.0000 0.0000 0.0000 0.0000 0.0000 -77.2128 3.9255 4.9152 -9.8521 -5.4435 9.0594 -159.4958 7.1016 175.1965 58.6318 -11.8513 4.1924 15.7108 0.0000 0.0000 11.6227 0.0000 0.0000 -3.2811 -0.8325 6.4164 9.9045 0.0000 0.0000 2.5350 0.0000 0.0000 8.7329 -0.6033 3.1163 17.4501 0.0000 0.0000 3.5119 0.0000 0.0000 18.1734 -1.0602 2.6294 19.8574 0.0000 0.0000 1.1281 0.0000 0.0000 25.1782 -1.6439 2.5402 14.8847 0.0000 0.0000 4.8612 0.0000 0.0000 0.0000 0.0000 0.0000 89.2765 -2.5327 2.5649 -4.6467 11.2756 10.2812 -141.3446 33.5535 -32.2722 -74.2271 -15.2133 -13.9524 6.3751 0.0000 0.0000 7.7605 0.0000 0.0000 9.8195 -1.1620 -16.7675 10.9495 0.0000 0.0000 11.0413 0.0000 0.0000 21.2055 2.0985 -6.4039 89.3295 0.0000 0.0000 20.0754 0.0000 0.0000 26.2100 -1.6601 8.3236 93.7793 0.0000 0.0000 13.8616 0.0000 0.0000 26.6153 -5.6180 13.4422 87.3748 0.0000 0.0000 13.9915 0.0000 0.0000 0.0000 0.0000 0.0000 0.0000 0.0000 0.0000 0.0000 0.0000 0.0000 0.0000 0.0000 0.0000 0.0000 0.0000 0.0000 0.0000 0.0000 0.0000
0.0000 95.0000 0.0000 0.0000 0.0000 0.0000 0.0000 0.0000 0.0000 0.0000 0.0000 0.0000 0.0000 0.0000 0.0000 0.0000 0.0000 0.0000 0.0000 0.0000 0.0000 0.0000 0.0000 0.0000 -77.5646 3.9103 4.8655 -9.5881 -5.5552 9.0900 -159.5654 7.0774 175.1533 58.6318 -11.8513 4.1924 15.7108 0.0000 0.0000 11.6227 0.0000 0.0000 -3.2811 -0.8325 6.4164 9.9045 0.0000 0.0000 2.5350 0.0000 0.0000 8.7329 -0.6033 3.1163 17.4501 0.0000 0.0000 3.5119 0.0000 0.0000 18.1734 -1.0602 2.6294 19.8574 0.0000 0.0000 1.1281 0.0000 0.0000 25.1782 -1.6439 2.5402 14.8847 0.0000 0.0000 4.8612 0.0000 0.0000 0.0000 0.0000 0.0000 89.2126 -2.1676 2.1976 -4.2158 11.3125 10.4586 -141.8624 33.6210 -32.3189 -74.2271 -15.2133 -13.9524 6.3751 0.0000 0.0000 7.7605 0.0000 0.0000 9.8195 -1.1620 -16.7675 10.9495 0.0000 0.0000 11.0413 0.0000 0.0000 21.2055 2.0985 -6.4039 89.3295 0.0000 0.0000 20.0754 0.0000 0.0000 26.2100 -1.6601 8.3236 93.7793 0.0000 0.0000 13.8616 0.0000 0.0000 26.6153 -5.6180 13.4422 87.3748 0.0000 0.0000 13.9915 0.0000 0.0000 0.0000 0.0000 0.0000 0.0000 0.0000 0.0000 0.0000 0.0000 0.0000 0.0000 0.0000 0.0000 0.0000 0.0000 0.0000 0.0000 0.0000 0.0000
0.0000 95.0000 0.0000 0.0000 0.0000 0.0000 0.0000 0.0000 0.0000 0.0000 0.0000 0.0000 0.0000 0.0000 0.0000 0.0000 0.0000 0.0000 0.0000 0.0000 0.0000 0.0000 0.0000 0.0000 -77.4635 3.5767 4.4586 -9.9056 -5.9648 9.7195 -159.6713 6.9255 174.9649 58.6318 -11.8513 4.1924 15.7108 0.0000 0.0000 11.6227 0.0000 0.0000 -3.2811 -0.8325 6.4164 9.9045 0.0000 0.0000 2.5350 0.0000 0.0000 8.7329 -0.6033 3.1163 17.4501 0.0000 0.0000 3.5119 0.0000 0.0000 18.1734 -1.0602 2.6294 19.8574 0.0000 0.0000 1.1281 0.0000 0.0000 25.1782 -1.6439 2.5402 14.8847 0.0000 0.0000 4.8612 0.0000 0.0000 0.0000 0.0000 0.0000 89.2711 -1.7715 1.7942 -4.2313 11.4684 10.6282 -142.0090 33.8109 -32.1500 -74.2271 -15.2133 -13.9524 6.3751 0.0000 0.0000 7.7605 0.0000 0.0000 9.8195 -1.1620 -16.7675 10.9495 0.0000 0.0000 11.0413 0.0000 0.0000 21.2055 2.0985 -6.4039 89.3295 0.0000 0.0000 20.0754 0.0000 0.0000 26.2100 -1.6601 8.3236 93.7793 0.0000 0.0000 13.8616 0.0000 0.0000 26.6153 -5.6180 13.4422 87.3748 0.0000 0.0000 13.9915 0.0000 0.0000 0.0000 0.0000 0.0000 0.0000 0.0000 0.0000 0.0000 0.0000 0.0000 0.0000 0.0000 0.0000 0.0000 0.0000 0.0000 0.0000 0.0000 0.0000
